<svg width="159" height="185" viewBox="0 0 159 185" fill="none" xmlns="http://www.w3.org/2000/svg">
<g style="mix-blend-mode:lighten">
<path d="M41.1577 25.1617L41.1711 25.154L41.1844 25.1464C50.781 19.6997 59.6744 14.7012 66.2719 11.0612C69.5674 9.24298 72.3084 7.75359 74.2839 6.71428C75.2667 6.19725 76.0919 5.77477 76.7136 5.47491C77.0184 5.32788 77.3221 5.18713 77.5927 5.07513C77.724 5.0208 77.9035 4.94986 78.1019 4.88588L78.1124 4.88245C78.2085 4.85056 78.7631 4.66666 79.4471 4.66666C80.1629 4.66666 80.737 4.86807 80.7922 4.88588C80.9907 4.94986 81.1702 5.0208 81.3014 5.07513C81.5721 5.18713 81.8758 5.32788 82.1806 5.47491C82.8023 5.77477 83.6275 6.19725 84.6102 6.71428C86.5858 7.75359 89.3268 9.24298 92.6223 11.0612C99.2198 14.7012 108.113 19.6997 117.71 25.1464L117.723 25.154L117.736 25.1617L152.729 45.3795L154.728 46.5344V48.8429V91.6112V134.379V136.69L152.726 137.845L117.215 158.322L117.204 158.328L81.4344 178.805L79.4398 179.947L77.4489 178.798L41.9492 158.328L41.9383 158.322L6.17936 137.851L4.16663 136.699V134.379V91.6112V48.8429V46.5344L6.16552 45.3795L41.1577 25.1617ZM79.012 23.6944C78.5181 23.9525 77.9244 24.2708 77.2376 24.6456C75.4495 25.6217 73.1001 26.9434 70.3762 28.5011C64.9323 31.6142 58.0503 35.6367 51.2911 39.6469C44.5306 43.658 37.9117 47.6456 32.9917 50.6894C31.7302 51.4698 30.5875 52.1838 29.587 52.8174C30.5963 53.4615 31.7627 54.1901 33.0692 54.9921C38.1334 58.1012 45.1478 62.2203 52.8905 66.608L79.4471 81.3349L106.004 66.6081C113.755 62.2155 120.839 58.0931 125.974 54.9805C127.352 54.1448 128.579 53.3888 129.633 52.7246C128.575 52.0533 127.343 51.2878 125.958 50.4395C120.817 47.2906 113.728 43.1011 105.965 38.5728C98.2075 34.1769 91.0431 30.1754 85.7922 27.3083C83.1598 25.871 81.0312 24.7313 79.5566 23.9724C79.3604 23.8714 79.1789 23.7788 79.012 23.6944ZM26.1883 71.2498C24.6603 70.4225 23.2882 69.6897 22.1057 69.0673C22.0347 70.1812 21.971 71.4657 21.9162 72.9063C21.6931 78.7716 21.6278 86.9198 21.7564 95.9419L22.4804 126.589L48.5199 141.538L48.532 141.545L48.544 141.552L70.3596 154.277L69.7457 127.473L69.7457 127.473L69.0194 96L45.0353 81.8493C45.032 81.8474 45.0286 81.8454 45.0253 81.8435C37.9373 77.7197 31.2378 73.9836 26.1883 71.2498ZM110.92 141.781L137.415 126.848L137.655 96.0176C137.655 96.0124 137.655 96.0072 137.655 96.002C137.655 86.9824 137.462 78.8352 137.143 72.9713C137.061 71.4561 136.971 70.1137 136.876 68.9606C135.655 69.6023 134.224 70.3698 132.618 71.2447C127.604 73.9766 120.967 77.7139 113.87 81.8431C113.866 81.8452 113.862 81.8472 113.859 81.8493L89.8748 96L89.1485 127.473L89.1485 127.473L88.5318 154.4L110.92 141.781ZM136.349 64.7934C136.349 64.794 136.352 64.8032 136.357 64.8198C136.352 64.8011 136.349 64.7927 136.349 64.7934Z" stroke="#fff" stroke-width="8"/>
</g>
</svg>
